<svg width="1000" height="1000" viewBox="0 0 1000 1000" fill="none" xmlns="http://www.w3.org/2000/svg">
<path d="M523.5 305.5L624.5 318.5L749 419.5V508L652 610.5L482 592.5L314 610.5L224 479L263.5 419.5L314 340L399 305.5H523.5Z" fill="white"/>
<path d="M326 303.5L384 419L222 437.5L326 303.5Z" fill="#FEA801"/>
<path d="M370 447.5L256.5 614L206.5 468L370 447.5Z" fill="#FEA801"/>
<path d="M363.5 512.5L327 630.5H280L363.5 512.5Z" fill="#FEA801"/>
<path d="M615 477.5L475 618.5L424 448L615 477.5Z" fill="#FEA801"/>
<path d="M403 479.5L454 646L449 728.5L352 642L403 479.5Z" fill="#FEA801"/>
<path d="M688.5 632H503L629 502L688.5 632Z" fill="#FEA801"/>
<path d="M713.5 619L652.5 482H796L713.5 619Z" fill="#FEA801"/>
<path d="M793 453.5H654L711.5 334L793 453.5Z" fill="#FEA801"/>
<path d="M634.5 433L556 279.5L687 311L634.5 433Z" fill="#FEA801"/>
<path d="M608 449L426 426L528.5 278.5L608 449Z" fill="#FEA801"/>
<path d="M501 271L406.5 403.5L348.5 288.5L501 271Z" fill="#FEA801"/>
</svg>
